<?xml version="1.0" encoding="UTF-8" standalone="no"?>
<svg
   viewBox="0 0 120 168"
   version="1.1"
   id="svg2"
   sodipodi:docname="24.svg"
   inkscape:version="1.4.2 (ebf0e94, 2025-05-08)"
   xmlns:inkscape="http://www.inkscape.org/namespaces/inkscape"
   xmlns:sodipodi="http://sodipodi.sourceforge.net/DTD/sodipodi-0.dtd"
   xmlns="http://www.w3.org/2000/svg"
   xmlns:svg="http://www.w3.org/2000/svg">
  <defs
     id="defs2" />
  <sodipodi:namedview
     id="namedview2"
     pagecolor="#ffffff"
     bordercolor="#000000"
     borderopacity="0.25"
     inkscape:showpageshadow="2"
     inkscape:pageopacity="0.0"
     inkscape:pagecheckerboard="0"
     inkscape:deskcolor="#d1d1d1"
     inkscape:zoom="4.7559524"
     inkscape:cx="60.030038"
     inkscape:cy="84"
     inkscape:window-width="1920"
     inkscape:window-height="1008"
     inkscape:window-x="0"
     inkscape:window-y="44"
     inkscape:window-maximized="1"
     inkscape:current-layer="svg2" />
  <rect
     x="0"
     y="0"
     width="120"
     height="168"
     rx="8"
     fill="#fefefe"
     id="rect1" />
  <path
     d="M0 0v2.87h2.937v24.98H0v3.092h8.532V27.85h-2.26v-7.086l3.426-4.75 5.14 11.835h-3.28v3.09h9.305v-3.09h-2.226l-6.814-15.22 6.474-9.81 2.4.042V0h-9.24v2.87h2.663L6.27 14.917V2.87H8.6V0z"
     transform="matrix(2.1977 0 0 2.1977 37.075 26.000)"
     fill="#d40000"
     id="path1" />
  <path
     d="M16.49.2c7.12-.476 10.832 5.638 11.557 10.455.432.766.668.55.834-.042.35-6.186 5.86-11.24 10.96-10.55 8.3.108 13.35 9.393 11.93 17.25-1.73 9.6-6.875 15.38-10.77 21.333C36.586 44.81 30.656 53.716 28.74 58c0 0-6.027-9.222-13.87-20.067-5.243-7.252-9.44-15.11-9.83-21.875-.447-7.73 2.71-14.66 11.45-15.86z"
     transform="matrix(0.8870 0 0 0.8870 34.374 97.556)"
     fill="#d40000"
     id="path2" />
</svg>
